# xmcd
#
# Track frame offsets: 
#        150
#        12152
#        22415
#        36682
#        49090
#        62797
#        77537
#        92955
#        116310
#        129897
#        146507
#        163320
#        178402
#        196950
#        216937
#
# Disc length: 3134 seconds
#
# Revision: 0
# Processed by: cddbd v1.4PL0 Copyright (c) Steve Scherf et al.
# Submitted via: ExactAudioCopy v0.90b4
#
DISCID=dd0c3c0f
DTITLE=Bluesplasma - rythmandblues
DYEAR=1997
DGENRE=Blues
TTITLE0=Fine Day
TTITLE1=Crossroads
TTITLE2=I'm Ready
TTITLE3=Nutbush City Limits
TTITLE4=Boom Boom (Out Go The Light)
TTITLE5=Diddy Wah Diddy
TTITLE6=It Hurts Me Too
TTITLE7=Can't Complain
TTITLE8=TV-Crazy
TTITLE9=T-Bone Shuffle
TTITLE10=Shame On You
TTITLE11=Bullfrog Blues
TTITLE12=Moth To A Flame
TTITLE13=Hotchie Cotchie Man
TTITLE14=Sweet Home Chicago
EXTD=
EXTT0=
EXTT1=
EXTT2=
EXTT3=
EXTT4=
EXTT5=
EXTT6=
EXTT7=
EXTT8=
EXTT9=
EXTT10=
EXTT11=
EXTT12=
EXTT13=
EXTT14=
PLAYORDER=
